<svg width="1000" height="600" xmlns="http://www.w3.org/2000/svg"><defs><linearGradient id="a" gradientTransform="rotate(90)"><stop offset="5%" stop-color="#52989a"/><stop offset="95%" stop-color="#7db1b3"/></linearGradient><linearGradient id="b" gradientTransform="rotate(90)"><stop offset="5%" stop-color="#4ecdc4"/><stop offset="95%" stop-color="#7ad9d2"/></linearGradient><linearGradient id="c" gradientTransform="rotate(90)"><stop offset="5%" stop-color="#8be194"/><stop offset="95%" stop-color="#a8e8ae"/></linearGradient><linearGradient id="d" gradientTransform="rotate(90)"><stop offset="5%" stop-color="#c7f464"/><stop offset="95%" stop-color="#d5f68a"/></linearGradient><linearGradient id="e" gradientTransform="rotate(90)"><stop offset="5%" stop-color="#e3b068"/><stop offset="95%" stop-color="#eac38d"/></linearGradient><linearGradient id="f" gradientTransform="rotate(90)"><stop offset="5%" stop-color="#ff6b6b"/><stop offset="95%" stop-color="#ff9090"/></linearGradient><linearGradient id="g" gradientTransform="rotate(90)"><stop offset="5%" stop-color="#e25c62"/><stop offset="95%" stop-color="#e98489"/></linearGradient><linearGradient id="h" gradientTransform="rotate(90)"><stop offset="5%" stop-color="#c44d58"/><stop offset="95%" stop-color="#d27981"/></linearGradient></defs><path fill="#556270" d="M0 0h1000v600H0z"/><path d="M0 66c29.198 4.71 58.397 9.422 90 7 31.603-2.422 65.611-11.976 93-15 27.389-3.024 48.158.481 80 3s74.758 4.05 106 5c31.242.95 50.81 1.316 78 1 27.19-.316 62.002-1.314 95 1s64.182 7.94 96 11c31.818 3.06 64.272 3.552 95-1 30.728-4.552 59.731-14.148 86-19s49.803-4.96 83 0 76.056 14.989 94 17c17.944 2.011 10.972-3.994 44-10l-40 534H0Z" fill="url(#a)"/><path d="M0 133c29.76 9.809 59.518 19.617 88 14 28.482-5.617 55.686-26.66 87-28 31.314-1.34 66.739 17.022 98 21 31.261 3.978 58.36-6.427 88-12s61.822-6.314 95-2 67.352 13.682 99 13c31.648-.682 60.77-11.414 92-18 31.23-6.586 64.57-9.024 91-5 26.43 4.024 45.95 14.512 73 21 27.05 6.488 61.629 8.978 101 4s83.535-17.422 99-20c15.465-2.578 2.233 4.711 29 12l-40 467H0Z" fill="url(#b)"/><path d="M0 200c27.986-3.692 55.972-7.383 89-7s71.098 4.842 100 3c28.902-1.842 48.634-9.984 77-11s65.365 5.093 101 7c35.635 1.907 69.906-.389 96-2 26.094-1.611 44.01-2.537 72 2 27.99 4.537 66.054 14.538 96 12 29.946-2.538 51.773-17.614 85-21 33.227-3.386 77.855 4.917 108 9 30.145 4.083 45.808 3.945 80 8s86.912 12.301 106 13c19.088.699 4.544-6.15 30-13l-40 400H0Z" fill="url(#c)"/><path d="M0 266c24.886-7.552 49.771-15.104 83-11 33.229 4.104 74.801 19.864 106 20 31.199.136 52.024-15.35 78-18 25.976-2.65 57.101 7.54 91 12s70.57 3.192 105 1c34.43-2.192 66.619-5.308 93-9s46.955-7.961 73-11c26.045-3.039 57.562-4.847 93 4 35.438 8.847 74.798 28.35 105 27 30.202-1.35 51.247-23.556 84-30 32.753-6.444 77.215 2.873 94 8 16.785 5.127 5.892 6.063 35 7l-40 334H0Z" fill="url(#d)"/><path d="M0 333c33.625-.594 67.25-1.188 97 1 29.75 2.188 55.622 7.159 85 8 29.378.841 62.26-2.447 92-3 29.74-.553 56.338 1.628 84 0s56.387-7.064 88-8c31.613-.936 66.112 2.63 98 2 31.888-.63 61.163-5.454 93-4 31.837 1.454 66.235 9.185 97 8 30.765-1.185 57.896-11.287 87-12 29.104-.713 60.182 7.962 91 14 30.818 6.038 61.377 9.44 76 8 14.623-1.44 13.312-7.72 52-14l-40 267H0Z" fill="url(#e)"/><path d="M0 400c31.303 4.22 62.606 8.44 94 11 31.394 2.56 62.877 3.458 94-1 31.123-4.458 61.884-14.274 89-20 27.116-5.726 50.587-7.364 82-6 31.413 1.364 70.77 5.73 104 8 33.23 2.27 60.337 2.446 91 8 30.663 5.554 64.884 16.486 92 13 27.116-3.486 47.128-21.39 74-24 26.872-2.61 60.605 10.074 91 12 30.395 1.926 57.453-6.904 90-8s70.585 5.544 88 8c17.415 2.456 14.208.728 51-1l-40 200H0Z" fill="url(#f)"/><path d="M0 466c23.201 9.228 46.403 18.455 79 15 32.597-3.455 74.59-19.594 107-22 32.41-2.406 55.234 8.92 81 11s54.474-5.086 87-6c32.526-.914 68.871 4.424 100 4 31.129-.424 57.042-6.612 84-6 26.958.612 54.961 8.022 88 6 33.039-2.022 71.113-13.475 102-14 30.887-.525 54.588 9.88 81 10 26.412.12 55.534-10.045 92-11 36.466-.955 80.276 7.298 98 11 17.724 3.702 9.362 2.85 41 2l-40 134H0Z" fill="url(#g)"/><path d="M0 533c27.077 4.015 54.154 8.03 87 11 32.846 2.97 71.46 4.898 102 3 30.54-1.898 53.004-7.62 82-9 28.996-1.38 64.525 1.58 95-2 30.475-3.58 55.895-13.7 82-12 26.105 1.7 52.894 15.222 88 18 35.106 2.778 78.527-5.187 111-10s53.997-6.475 83-3c29.003 3.475 65.485 12.086 95 14 29.515 1.914 52.062-2.87 82-3 29.938-.13 67.268 4.391 84 4s12.866-5.696 49-11l-40 67H0Z" fill="url(#h)"/></svg>