<svg width="3000" height="300" xmlns="http://www.w3.org/2000/svg">
<path fill="none" d="M0 0h3000v300H0z"/>
<path d="M0 150h0c32.787 11.084 65.575 22.169 106 29 40.425 6.831 88.49 9.41 124 2 35.51-7.41 58.469-24.808 93-39s80.635-25.18 124-13c43.365 12.18 83.99 47.526 117 45 33.01-2.526 58.403-42.925 91-55 32.597-12.075 72.397 4.175 114 22 41.603 17.825 85.009 37.225 123 45 37.991 7.775 70.568 3.925 104-12s67.72-43.924 106-48c38.28-4.076 80.55 15.773 118 16 37.45.227 70.077-19.168 107-13 36.923 6.168 78.14 37.898 116 44 37.86 6.102 72.361-13.426 110-23 37.639-9.574 78.414-9.195 119-3s80.983 18.206 112 16c31.017-2.206 52.655-18.629 92-26 39.345-7.371 96.396-5.692 135 6s58.76 33.396 88 32c29.24-1.396 67.563-25.891 112-41 44.437-15.109 94.988-20.831 133-9s63.487 41.217 94 39c30.513-2.217 66.066-36.036 109-39 42.934-2.964 93.25 24.927 131 23 37.75-1.927 62.933-33.673 98-27 35.067 6.673 80.02 51.764 119 63 38.98 11.236 71.99-11.382 145-34" fill="none" stroke="#8f97a0" stroke-width="18" stroke-linecap="round"/>
</svg>